Coordinates
version=1
nRows=9
nColumns=24
inDegrees=yes

Units are S.I. units (second, meters, Newtons, ...)
Angles are in degrees.

endheader
time	pelvis_tilt	pelvis_list	pelvis_rotation	pelvis_tx	pelvis_ty	pelvis_tz	hip_flexion_r	hip_adduction_r	hip_rotation_r	knee_angle_r	ankle_angle_r	subtalar_angle_r	mtp_angle_r	hip_flexion_l	hip_adduction_l	hip_rotation_l	knee_angle_l	ankle_angle_l	subtalar_angle_l	mtp_angle_l	lumbar_extension	lumbar_bending	lumbar_rotation
      0.50400000	      0.08006311	      6.15540314	      2.57283059	     -0.86779246	      0.97843420	      0.29482058	     25.64145222	     -5.33349905	     -4.64753132	     -6.39257082	      9.82282302	     -4.29318492	      0.72301751	    -15.22067784	      9.62734040	      5.81984919	     -8.23337937	     11.14347391	     -4.14175555	      0.15166411	     -0.33396879	     -4.53366907	     -0.25039807
      0.50816667	     -0.01618977	      6.14039115	      2.68342669	     -0.86213478	      0.97788561	      0.29514795	     25.71115238	     -5.30573271	     -4.81883735	     -6.58091606	      9.77366350	     -4.44600196	      1.44635393	    -15.04686638	      9.55365780	      5.54843211	     -8.99258238	     11.22954323	     -3.64402037	      0.12363723	     -0.20266992	     -4.52247428	     -0.36198545
      0.51233333	     -0.11680516	      6.13903778	      2.75759503	     -0.85639068	      0.97731821	      0.29547400	     25.79588092	     -5.28264963	     -4.91924782	     -6.84125112	      9.64467341	     -4.61683334	      1.71250899	    -15.04573926	      9.51114469	      5.53827819	     -9.46778589	     11.16105193	     -3.64370607	      0.14216421	     -0.04722777	     -4.52554479	     -0.42146166
      0.51650000	     -0.13226837	      6.10759357	      2.80782998	     -0.85055558	      0.97690217	      0.29582984	     25.79283755	     -5.22501617	     -5.04927584	     -7.17661014	      9.53405028	     -4.75184836	      1.74843092	    -15.16404800	      9.43161054	      5.51228458	     -9.87517959	     10.99647202	     -3.63238364	      0.14706942	     -0.00523616	     -4.48180692	     -0.42851439
      0.52066667	     -0.17449917	      6.03497313	      2.87996583	     -0.84468323	      0.97648252	      0.29623520	     25.76128685	     -5.11681397	     -5.06369345	     -7.45132197	      9.26875731	     -5.26379489	      2.72489430	    -15.15345980	      9.28490603	      5.25969658	    -10.48833911	     11.06570242	     -3.15801185	      0.46590926	      0.10285586	     -4.38846833	     -0.50696429
      0.52483333	     -0.29327434	      6.03108872	      2.95060769	     -0.83882972	      0.97599148	      0.29657498	     25.88315609	     -5.10063097	     -5.14972550	     -7.90916099	      9.10928733	     -5.42398223	      2.87795183	    -15.08592576	      9.24144109	      5.22821248	    -11.04167230	     10.85528928	     -3.14877621	      0.54139794	      0.29220656	     -4.38675757	     -0.60313031
      0.52900000	     -0.37368865	      5.99104050	      3.01500324	     -0.83291101	      0.97558786	      0.29694673	     25.93047285	     -5.03881975	     -5.18923315	     -8.34365097	      8.84596958	     -5.72472716	      3.06609131	    -15.03350177	      9.15102133	      5.12184408	    -11.64381794	     10.71278626	     -3.01361920	      0.67477782	      0.43995168	     -4.33651040	     -0.68050396
      0.53316667	     -0.45099084	      5.92897552	      3.04341868	     -0.82694033	      0.97520050	      0.29737249	     25.97346999	     -4.93499285	     -5.14927767	     -8.80779552	      8.57529650	     -6.18308990	      3.35542438	    -14.96919003	      9.04257747	      4.94448973	    -12.26684355	     10.56227270	     -2.83511623	      0.94035151	      0.59546618	     -4.25004160	     -0.73678615
      0.53733333	     -0.45785650	      5.84181403	      3.08564070	     -0.82092203	      0.97498284	      0.29780734	     25.87604136	     -4.80112710	     -5.06819117	     -9.16857641	      8.13667604	     -6.79844025	      4.33014122	    -14.97111524	      8.89525329	      4.78921432	    -12.90150351	     10.32456347	     -2.67165038	      2.05288574	      0.65838716	     -4.14295214	     -0.73511947
